<?xml version="1.0" encoding="UTF-8"?>
<svg id="Capa_1" data-name="Capa 1" xmlns="http://www.w3.org/2000/svg" viewBox="0 0 2000 2000">
  <defs>
    <style>
      .cls-1 {
        fill: #070508;
      }
    </style>
  </defs>
  <g>
    <path class="cls-1" d="M1022.29,563.93c-10.76-36.56-48.16-53.3-82.96-56.14v-.84c29.82-7.98,66.79-26.05,66.79-69.73s-38.22-69.73-103.33-69.73h-111.73v3.36c27.72,1.68,33.6,5.88,33.6,23.1v252.87c0,17.22-5.88,21.42-33.6,23.1v3.36h114.67c33.16,0,63.07-8.07,84.69-23.02l31.88-86.34Zm-152.69-189.72h26.46c40.75,0,68.05,23.52,68.05,68.05,0,38.64-24.78,64.27-70.15,64.27h-24.36v-132.32Zm30.66,292.35c-26.46,0-30.66-5.04-30.66-20.58v-132.73h29.82c46.21,0,78.55,27.3,78.55,76.87,0,46.63-27.72,76.45-77.71,76.45Z"/>
    <path class="cls-1" d="M1141.5,750.98l-30.67-84.01h-100.81l-23.1,62.59c-13.02,34.44-5.88,51.24,34.86,53.77v3.36h-96.19v-3.36c21.42-2.52,35.71-15.12,51.67-56.29l76.45-207.08-9.66-24.78c14.7-3.36,31.08-11.35,39.9-22.69h2.94c3.78,14.7,5.88,21.01,16.38,48.31l78.55,210.44c15.96,41.16,22.69,49.56,49.99,52.09v3.36h-118.45v-3.36c34.44-2.1,35.71-11.34,28.14-32.35Zm-34.03-92.41l-47.47-129.38-47.04,129.38h94.51Z"/>
  </g>
  <g>
    <g>
      <path class="cls-1" d="M605.22,1481.48v-136.56c0-9.3-3.17-11.57-18.15-12.47v-1.82h60.34c35.16,0,55.8,13.38,55.8,37.66s-19.96,33.34-36.07,37.65v.45c22.23,1.81,46.5,14.06,46.5,42.19,0,29.71-28.81,47.18-64.65,47.18h-61.93v-1.81c14.97-.91,18.15-3.18,18.15-12.48Zm37.43-75.76c24.5,0,37.88-13.84,37.88-34.7,0-24.04-14.75-36.75-36.74-36.75h-14.29v71.45h13.15Zm3.4,86.43c26.99,0,41.97-16.11,41.97-41.28,0-26.77-17.47-41.51-42.42-41.51h-16.1v71.68c0,8.39,2.26,11.12,16.56,11.12Z"/>
      <path class="cls-1" d="M797.37,1479.44l-11.57-29.72h-38.56l-7.26,18.37c-7.03,16.79-3.17,24.73,14.52,25.86v1.81h-41.74v-1.81c8.85-1.14,14.52-7.26,22.91-26.99l28.13-71.23-4.08-9.98c8.39-2.04,15.2-6.58,19.96-12.47h1.59c1.36,5.21,2.26,8.39,6.58,18.83l30.62,76.44c9.07,20.87,12.02,24.27,22.69,25.41v1.81h-54.45v-1.81c13.62-1.14,14.07-6.13,10.67-14.52Zm-13.15-33.57l-17.7-45.14-17.69,45.14h35.39Z"/>
      <path class="cls-1" d="M868.83,1484.2v-95.73c0-7.03-2.5-9.07-13.15-9.75v-1.81h46.27c31.31,0,48.54,9.98,48.54,28.35,0,15.88-13.15,24.04-26.54,28.58l23.82,32.66c15.43,21.09,20.64,26.54,27.67,27.45v1.81c-3.86,.23-11.57,.68-19.28,.68-12.03,0-18.38-2.27-28.81-19.51l-21.55-33.8c-3.4-5.67-4.77-6.13-7.49-6.13h-5.67v47.18c0,7.26,2.26,9.07,15.2,9.75v1.81h-52.17v-1.81c11.11-.68,13.15-2.72,13.15-9.75Zm28.81-49.91c8.39,0,15.65-2.72,20.86-7.49v-.45l.23,.23c4.31-4.54,7.03-10.66,7.03-18.15,0-18.6-10.89-28.81-29.72-28.81h-3.4v54.67h4.99Z"/>
      <path class="cls-1" d="M1005.17,1484.2v-95.73c0-7.03-2.5-9.07-13.16-9.75v-1.81h46.28c31.3,0,48.54,9.98,48.54,28.35,0,15.88-13.15,24.04-26.54,28.58l23.81,32.66c15.43,21.09,20.64,26.54,27.68,27.45v1.81c-3.86,.23-11.57,.68-19.28,.68-12.02,0-18.38-2.27-28.8-19.51l-21.55-33.8c-3.4-5.67-4.77-6.13-7.49-6.13h-5.68v47.18c0,7.26,2.27,9.07,15.2,9.75v1.81h-52.17v-1.81c11.12-.68,13.16-2.72,13.16-9.75Zm28.8-49.91c8.39,0,15.66-2.72,20.87-7.49v-.45l.22,.23c4.31-4.54,7.04-10.66,7.04-18.15,0-18.6-10.89-28.81-29.72-28.81h-3.4v54.67h4.99Z"/>
      <path class="cls-1" d="M1146.03,1484.2v-95.73c0-7.03-2.5-9.07-13.83-9.75v-1.81h51.26v1.81c-11.57,.68-13.61,2.72-13.61,9.75v95.73c0,7.26,2.27,9.07,13.61,9.75v1.81h-51.26v-1.81c11.57-.68,13.83-2.72,13.83-9.75Z"/>
      <path class="cls-1" d="M1202.98,1437.47c0-36.97,29.27-62.83,65.33-62.83s63.52,24.73,63.52,60.56-29.03,62.83-65.56,62.83-63.29-24.73-63.29-60.56Zm66.69,57.39c20.19,0,35.61-21.32,35.61-53.53s-14.97-63.51-40.15-63.51c-20.19,0-35.38,21.32-35.38,53.53,0,29.49,14.29,63.51,39.92,63.51Z"/>
      <path class="cls-1" d="M1363.14,1490.78c-2.27,0-3.63,1.36-4.77,4.99h-1.81l-5.22-49.22h1.82c10.89,29.26,25.4,47.86,50.35,47.86,23.37,0,37.88-13.16,37.88-32.44,0-14.74-9.07-26.09-33.12-36.29l-13.38-5.67c-27.67-11.79-36.52-27.44-36.52-44.91,0-26.31,19.96-46.73,47.19-46.73,18.37,0,30.39,7.26,35.38,7.26,2.27,0,3.4-1.36,4.54-4.99h1.82l4.77,43.55h-1.82c-10.66-26.31-24.27-42.19-44.68-42.19-16.33,0-30.85,10.21-30.85,28.81,0,13.61,4.99,24.04,32.66,35.84l13.38,5.67c27.22,11.57,36.97,26.77,36.97,45.59,0,29.03-23.37,50.13-54.22,50.13-20.19,0-35.61-7.26-40.37-7.26Z"/>
    </g>
    <g>
      <path class="cls-1" d="M534.59,1646.18l-16.56-45.37h-54.44l-12.48,33.8c-7.03,18.6-3.18,27.67,18.83,29.03v1.81h-51.95v-1.81c11.57-1.36,19.28-8.17,27.9-30.4l41.28-111.83-5.22-13.38c7.94-1.81,16.79-6.12,21.55-12.25h1.59c2.04,7.94,3.17,11.34,8.85,26.09l42.41,113.64c8.62,22.23,12.25,26.77,26.99,28.13v1.81h-63.97v-1.81c18.61-1.14,19.28-6.13,15.2-17.47Zm-18.38-49.9l-25.63-69.87-25.41,69.87h51.04Z"/>
      <path class="cls-1" d="M605.82,1643l2.04-75.76c.22-13.38-5.9-17.24-18.15-18.83v-1.81h43.32c.45,2.27,2.27,7.26,5.9,16.33l28.8,71.68,27.68-68.28c3.4-8.17,5.9-16.1,6.35-19.74h38.11v1.81c-10.44,.68-13.38,2.27-13.16,9.75l2.05,95.73c.22,7.26,2.5,9.3,13.15,9.75v1.81h-49.91v-1.81c10.44-.68,13.38-2.5,13.15-9.75l-2.26-94.14-43.55,105.7h-4.09l-42.87-104.8-2.26,82.34c-.23,14.52,7.03,19.51,20.64,20.64v1.81h-43.1v-1.81c11.57-1.14,17.69-6.58,18.15-20.64Z"/>
      <path class="cls-1" d="M771.88,1653.89v-95.73c0-7.03-2.5-9.07-13.15-9.75v-1.81h89.14l6.13,30.4h-1.82c-10.66-21.1-20.19-27.68-40.6-27.68h-15.88v54.44h16.79c14.97,0,18.82-7.48,22.46-22h1.81v47.63h-1.81c-3.63-15.43-7.49-22.91-22.46-22.91h-16.79v48.32c0,5.22,3.4,7.94,8.39,7.94h13.84c14.97,0,26.99-6.8,40.83-28.81h1.82l-9.53,31.53h-92.32v-1.81c11.11-.68,13.15-2.72,13.15-9.75Z"/>
      <path class="cls-1" d="M916.38,1653.89v-104.57h-3.85c-20.19,0-29.71,5.9-40.38,27.68h-1.81l6.35-31.53c3.17,.45,12.02,1.13,21.09,1.13h61.02c9.07,0,17.92-.68,21.1-1.13l6.58,31.53h-2.05c-10.66-21.78-20.19-27.68-40.15-27.68h-4.08v104.57c0,7.03,2.04,9.07,13.16,9.75v1.81h-50.14v-1.81c10.66-.68,13.15-2.27,13.15-9.75Z"/>
      <path class="cls-1" d="M1012.8,1653.89v-95.73c0-7.03-2.5-9.07-13.16-9.75v-1.81h49.91v1.81c-10.89,.68-12.93,2.72-12.93,9.75v45.14h56.71v-45.14c0-7.03-2.26-9.07-13.15-9.75v-1.81h49.91v1.81c-10.67,.68-12.93,2.5-12.93,9.75v95.73c0,7.03,2.26,9.07,12.93,9.75v1.81h-49.91v-1.81c10.66-.68,13.15-2.27,13.15-9.75v-46.73h-56.71v46.73c0,7.26,2.26,9.07,12.93,9.75v1.81h-49.91v-1.81c11.11-.68,13.16-2.72,13.16-9.75Z"/>
      <path class="cls-1" d="M1142.33,1548.41v-1.81h52.86v1.81c-12.71,1.14-10.67,6.58-6.35,14.74l25.41,46.96,19.5-36.29c8.85-16.33,7.49-24.04-10.88-25.41v-1.81h43.32v1.81c-10.21,1.36-17.69,7.49-28.13,26.99l-22.23,41.06v37.43c0,7.03,2.26,9.07,13.15,9.75v1.81h-49.91v-1.81c10.67-.68,12.93-2.5,12.93-9.75v-34.93l-24.27-45.14c-10.21-19.28-15.2-24.04-25.41-25.41Z"/>
      <path class="cls-1" d="M1281.39,1661.83c-1.59,0-2.73,1.14-3.63,3.63h-1.81l-3.86-39.24h1.82c8.84,23.14,19.28,38.33,38.56,38.33,16.56,0,26.77-8.85,26.77-21.32,0-10.21-6.35-18.15-23.81-25.4l-10.21-4.09c-21.09-8.62-27.67-20.19-27.67-33.34,0-19.51,14.97-36.07,36.74-36.07,13.38,0,23.59,5.9,27.45,5.9,1.82,0,2.73-1.14,3.86-3.63h1.81l3.63,34.03h-1.82c-8.39-20.64-18.82-33.12-34.93-33.12-11.11,0-21.32,7.03-21.32,18.83,0,9.53,3.4,16.56,24.27,25.18l9.98,4.08c20.42,8.62,27.67,19.96,27.67,34.03,0,21.32-18.37,38.11-42.42,38.11-14.97,0-27.22-5.9-31.07-5.9Z"/>
      <path class="cls-1" d="M1414.32,1653.89v-104.57h-3.85c-20.19,0-29.71,5.9-40.38,27.68h-1.81l6.35-31.53c3.17,.45,12.02,1.13,21.09,1.13h61.02c9.07,0,17.92-.68,21.1-1.13l6.58,31.53h-2.05c-10.66-21.78-20.19-27.68-40.15-27.68h-4.08v104.57c0,7.03,2.04,9.07,13.16,9.75v1.81h-50.14v-1.81c10.66-.68,13.15-2.27,13.15-9.75Z"/>
      <path class="cls-1" d="M1510.28,1660.47c-2.26,0-3.63,1.36-4.76,4.99h-1.82l-5.21-49.22h1.81c10.89,29.26,25.41,47.86,50.36,47.86,23.37,0,37.88-13.16,37.88-32.44,0-14.74-9.07-26.09-33.12-36.29l-13.38-5.67c-27.67-11.79-36.52-27.44-36.52-44.91,0-26.31,19.96-46.73,47.18-46.73,18.38,0,30.4,7.26,35.39,7.26,2.27,0,3.4-1.36,4.54-4.99h1.82l4.76,43.55h-1.82c-10.66-26.31-24.27-42.19-44.68-42.19-16.33,0-30.85,10.21-30.85,28.81,0,13.61,4.99,24.04,32.67,35.84l13.38,5.67c27.22,11.57,36.97,26.77,36.97,45.59,0,29.03-23.36,50.13-54.21,50.13-20.19,0-35.61-7.26-40.38-7.26Z"/>
    </g>
  </g>
  <rect class="cls-1" x="391.74" y="1229.2" width="1239.39" height="3.35"/>
  <g>
    <path class="cls-1" d="M1186.94,1031.52l-372.73-9-.93-.98-256.27-268.94,9-372.73,.98-.93L835.92,122.66l372.73,9,.93,.98,256.27,268.94-9,372.74-.98,.93-268.94,256.27Zm-369.86-15.48l367.31,8.86,266-253.46,8.86-367.31-253.46-265.99-367.31-8.86-266,253.46-8.86,367.31,253.46,266Z"/>
    <path class="cls-1" d="M1130.73,885.99l-253.36-6.12-174.83-183.48,6.12-253.36,183.48-174.83,253.36,6.11,174.83,183.48-6.12,253.36-183.48,174.83Zm-250.49-12.6l247.94,5.98,179.55-171.09,5.98-247.93-171.09-179.55-247.94-5.98-179.55,171.09-5.98,247.94,171.09,179.55Z"/>
    <rect class="cls-1" x="862.03" y="120.73" width="6.55" height="156.02" transform="translate(-13.49 325.09) rotate(-21.12)"/>
    <rect class="cls-1" x="1097.64" y="202.95" width="156.01" height="6.55" transform="translate(510.6 1197.38) rotate(-66.09)"/>
    <rect class="cls-1" x="1311.78" y="427.69" width="156.01" height="6.55" transform="translate(-61.92 529.87) rotate(-21.13)"/>
    <rect class="cls-1" x="1379.02" y="663.29" width="6.55" height="156.02" transform="translate(144.82 1705.11) rotate(-66.12)"/>
    <rect class="cls-1" x="1154.28" y="877.44" width="6.55" height="156.01" transform="translate(-266.49 481.21) rotate(-21.12)"/>
    <rect class="cls-1" x="769.22" y="944.68" width="156.01" height="6.55" transform="translate(-362.77 1338.24) rotate(-66.09)"/>
    <rect class="cls-1" x="555.07" y="719.95" width="156.01" height="6.55" transform="translate(-218.11 276.78) rotate(-21.13)"/>
    <rect class="cls-1" x="637.29" y="334.88" width="6.55" height="156.01" transform="translate(3.7 831.45) rotate(-66.12)"/>
    <rect class="cls-1" x="603.42" y="281.94" width="342.26" height="6.55" transform="translate(225.53 901.54) rotate(-68.52)"/>
    <rect class="cls-1" x="987.35" y="30.63" width="6.55" height="342.26" transform="translate(370.99 1000.57) rotate(-63.71)"/>
    <rect class="cls-1" x="1300.03" y="169.08" width="6.55" height="342.26" transform="translate(509.56 1428.47) rotate(-68.52)"/>
    <rect class="cls-1" x="1215.63" y="553.01" width="342.26" height="6.55" transform="translate(273.36 1552.74) rotate(-63.69)"/>
    <rect class="cls-1" x="1077.19" y="865.69" width="342.26" height="6.55" transform="translate(-17.39 1712.4) rotate(-68.52)"/>
    <rect class="cls-1" x="1028.96" y="781.29" width="6.55" height="342.26" transform="translate(-278.86 1456.07) rotate(-63.71)"/>
    <rect class="cls-1" x="716.28" y="642.85" width="6.55" height="342.26" transform="translate(-301.34 1185.57) rotate(-68.52)"/>
    <rect class="cls-1" x="464.98" y="594.62" width="342.26" height="6.55" transform="translate(-181.82 903.03) rotate(-63.69)"/>
  </g>
  <g>
    <path class="cls-1" d="M532.39,1839.31l.83-39.9c.08-5.72-1.28-6.17-7.08-6.55v-.53h12.87c.75,2.26,1.66,4.82,2.71,7.68l14.68,39.82,14.15-38.39c1.2-3.31,2.56-7.3,2.86-9.11h12.35v.53c-5.27,.3-6.4,.75-6.32,3.61l.9,46.52c.07,2.86,.98,3.31,6.32,3.61v.53h-17.09v-.53c5.27-.3,6.4-.75,6.33-3.61l-1.06-48.56-19.57,52.7h-.75l-19.57-52.85-.98,45.02c-.15,5.72,1.2,6.93,8.28,7.3v.53h-17.01v-.53c5.8-.37,7.08-1.58,7.15-7.3Z"/>
    <path class="cls-1" d="M622.23,1843v-46.52c0-2.86-1.06-3.31-6.62-3.61v-.53h17.69v.53c-5.57,.3-6.63,.75-6.63,3.61v46.52c0,2.86,1.06,3.31,6.63,3.61v.53h-17.69v-.53c5.57-.3,6.62-.75,6.62-3.61Z"/>
    <path class="cls-1" d="M669.3,1839.31v-39.15c0-5.72-1.36-6.92-7.15-7.3v-.53h11.07l32.89,46.75v-38.92c0-5.72-1.35-6.92-9.26-7.3v-.53h17.99v.53c-5.8,.38-7.15,1.58-7.15,7.3v47.73h-.53l-36.28-50.96v42.38c0,5.72,1.36,6.93,9.26,7.3v.53h-17.99v-.53c5.8-.37,7.15-1.58,7.15-7.3Z"/>
    <path class="cls-1" d="M749.88,1843v-46.52c0-2.86-1.06-3.31-6.32-3.61v-.53h36.58l2.34,12.04h-.53c-3.24-8.73-5.57-10.84-13.78-10.84h-13.85v25.22h11.45c6.7,0,8.06-1.88,9.18-8.81h.53v19.12h-.53c-1.13-7.3-2.48-9.11-9.18-9.11h-11.45v23.04c0,2.03,1.06,2.94,3.24,2.94h12.35c7.45,0,10.24-2.03,14.9-11.59h.53l-3.84,12.8h-37.94v-.53c5.27-.3,6.32-.75,6.32-3.61Z"/>
    <path class="cls-1" d="M820.22,1843v-46.52c0-2.86-1.05-3.31-6.32-3.61v-.53h20.1c18.15,0,31.1,10.16,31.1,26.73s-14.45,28.08-31.92,28.08h-19.27v-.53c5.27-.3,6.32-.75,6.32-3.61Zm13.78,2.94c13.93,0,26.12-8.96,26.12-25.07s-11.14-27.33-26.95-27.33h-8.51v48.86c0,2.71,.75,3.54,9.33,3.54Z"/>
    <path class="cls-1" d="M942.82,1843v-46.52c0-2.86-1.05-3.31-6.32-3.61v-.53h16.49c11.82,0,18.66,4.37,18.66,12.57s-7.08,11.52-12.27,12.57v.15c7.68,.75,15.73,4.59,15.73,13.93,0,10.01-9.19,15.58-21.31,15.58h-17.31v-.53c5.27-.3,6.32-.75,6.32-3.61Zm9.49-25.75c9.86,0,14.98-4.44,14.98-11.52,0-8.06-5.72-12.19-14.75-12.19h-5.27v23.71h5.05Zm1.43,28.68c10.77,0,16.71-5.2,16.71-13.63,0-9.11-7.15-13.85-17.39-13.85h-5.8v24.24c0,2.48,.53,3.24,6.47,3.24Z"/>
    <path class="cls-1" d="M999.23,1792.86v-.53h17.17v.53c-6.32,.08-6.02,1.28-4.06,4.74l13.4,24.39,12.5-22.36c2.34-4.22,1.96-6.4-4.89-6.78v-.53h16.11v.53c-4.44,.38-6.62,1.81-9.78,7.45l-13.17,23.48v19.2c0,2.86,1.05,3.31,6.32,3.61v.53h-17.09v-.53c5.27-.3,6.32-.75,6.32-3.61v-18.82l-13.7-24.62c-3.01-5.65-4.44-6.32-9.11-6.7Z"/>
    <path class="cls-1" d="M1121.61,1843v-46.52c0-2.86-1.05-3.31-6.32-3.61v-.53h35.23l2.34,12.04h-.52c-3.24-8.73-5.57-10.84-13.78-10.84h-12.5v25.22h10.69c6.7,0,8.06-1.88,9.19-8.81h.52v19.12h-.52c-1.13-7.3-2.49-9.11-9.19-9.11h-10.69v23.04c0,2.86,1.06,3.31,8.13,3.61v.53h-18.89v-.53c5.27-.3,6.32-.75,6.32-3.61Z"/>
    <path class="cls-1" d="M1214.6,1842.09l-5.87-16.48h-19.65l-5.04,14.23c-1.58,4.29-.68,6.4,5.72,6.78v.53h-15.13v-.53c3.69-.37,5.87-1.96,7.83-7.15l15.36-43.36-1.06-2.86c1.43-.38,3.24-1.21,4.14-2.41h.38c.6,2.71,.98,3.84,2.78,8.73l14.53,40.65c1.96,5.2,2.64,6.02,7.53,6.4v.53h-17.17v-.53c6.33-.07,6.85-1.05,5.65-4.52Zm-6.33-17.84l-9.33-26.49-9.41,26.49h18.74Z"/>
    <path class="cls-1" d="M1259.27,1839.31l.83-39.9c.08-5.72-1.28-6.17-7.08-6.55v-.53h12.87c.75,2.26,1.66,4.82,2.71,7.68l14.68,39.82,14.15-38.39c1.2-3.31,2.56-7.3,2.86-9.11h12.35v.53c-5.27,.3-6.4,.75-6.32,3.61l.9,46.52c.07,2.86,.98,3.31,6.32,3.61v.53h-17.09v-.53c5.27-.3,6.4-.75,6.33-3.61l-1.06-48.56-19.57,52.7h-.75l-19.57-52.85-.98,45.02c-.15,5.72,1.2,6.93,8.28,7.3v.53h-17.01v-.53c5.8-.37,7.08-1.58,7.15-7.3Z"/>
    <path class="cls-1" d="M1349.11,1843v-46.52c0-2.86-1.06-3.31-6.62-3.61v-.53h17.69v.53c-5.57,.3-6.63,.75-6.63,3.61v46.52c0,2.86,1.06,3.31,6.63,3.61v.53h-17.69v-.53c5.57-.3,6.62-.75,6.62-3.61Z"/>
    <path class="cls-1" d="M1395.81,1843v-46.52c0-2.86-1.05-3.31-6.32-3.61v-.53h17.09v.53c-5.27,.3-6.33,.75-6.33,3.61v46.52c0,2.18,1.06,2.94,3.24,2.94h9.79c7.45,0,10.31-2.18,14.98-11.67h.53l-3.92,12.87h-35.38v-.53c5.27-.3,6.32-.75,6.32-3.61Z"/>
    <path class="cls-1" d="M1447.4,1792.86v-.53h17.17v.53c-6.32,.08-6.02,1.28-4.06,4.74l13.4,24.39,12.5-22.36c2.34-4.22,1.96-6.4-4.89-6.78v-.53h16.11v.53c-4.44,.38-6.62,1.81-9.78,7.45l-13.17,23.48v19.2c0,2.86,1.05,3.31,6.32,3.61v.53h-17.09v-.53c5.27-.3,6.32-.75,6.32-3.61v-18.82l-13.7-24.62c-3.01-5.65-4.44-6.32-9.11-6.7Z"/>
  </g>
</svg>