<?xml version="1.0" encoding="UTF-8"?>
<svg id="Capa_1" data-name="Capa 1" xmlns="http://www.w3.org/2000/svg" viewBox="0 0 2000 2000">
  <defs>
    <style>
      .cls-1 {
        fill: #070508;
      }
    </style>
  </defs>
  <g>
    <path class="cls-1" d="M362.27,1189.78v-204.87c0-13.95-4.76-17.35-27.23-18.71v-2.72h90.52c52.75,0,83.72,20.08,83.72,56.49s-29.94,50.03-54.11,56.49v.69c33.35,2.72,69.76,21.09,69.76,63.3,0,44.58-43.22,70.78-96.99,70.78h-92.9v-2.72c22.46-1.36,27.23-4.76,27.23-18.72Zm56.15-113.66c36.76,0,56.83-20.75,56.83-52.06,0-36.07-22.12-55.13-55.13-55.13h-21.44v107.2h19.74Zm5.1,129.66c40.5,0,62.96-24.16,62.96-61.94,0-40.15-26.2-62.28-63.64-62.28h-24.16v107.54c0,12.59,3.4,16.68,24.84,16.68Z"/>
    <path class="cls-1" d="M650.52,1186.72l-17.35-44.58h-57.85l-10.89,27.57c-10.55,25.18-4.76,37.09,21.78,38.79v2.72h-62.61v-2.72c13.27-1.7,21.78-10.89,34.37-40.5l42.2-106.86-6.13-14.97c12.59-3.06,22.8-9.87,29.95-18.72h2.38c2.04,7.83,3.4,12.59,9.87,28.25l45.94,114.68c13.61,31.31,18.04,36.41,34.03,38.12v2.72h-81.68v-2.72c20.42-1.7,21.1-9.19,15.99-21.78Zm-19.74-50.37l-26.54-67.72-26.54,67.72h53.09Z"/>
    <path class="cls-1" d="M757.73,1193.87v-143.61c0-10.55-3.74-13.61-19.74-14.63v-2.72h69.43c46.96,0,72.83,14.98,72.83,42.54,0,23.82-19.74,36.07-39.82,42.88l35.73,49c23.14,31.65,30.97,39.81,41.52,41.18v2.72c-5.79,.34-17.36,1.02-28.93,1.02-18.04,0-27.57-3.4-43.22-29.27l-32.33-50.71c-5.1-8.5-7.15-9.18-11.23-9.18h-8.51v70.78c0,10.89,3.4,13.61,22.8,14.63v2.72h-78.27v-2.72c16.68-1.02,19.74-4.09,19.74-14.63Zm43.22-74.87c12.59,0,23.48-4.09,31.31-11.23v-.68l.34,.34c6.47-6.81,10.55-15.99,10.55-27.22,0-27.91-16.33-43.22-44.58-43.22h-5.1v82.02h7.49Z"/>
    <path class="cls-1" d="M962.26,1193.87v-143.61c0-10.55-3.74-13.61-19.74-14.63v-2.72h69.43c46.96,0,72.83,14.98,72.83,42.54,0,23.82-19.74,36.07-39.82,42.88l35.73,49c23.14,31.65,30.97,39.81,41.52,41.18v2.72c-5.79,.34-17.36,1.02-28.93,1.02-18.04,0-27.57-3.4-43.22-29.27l-32.33-50.71c-5.1-8.5-7.15-9.18-11.23-9.18h-8.51v70.78c0,10.89,3.4,13.61,22.8,14.63v2.72h-78.27v-2.72c16.68-1.02,19.74-4.09,19.74-14.63Zm43.22-74.87c12.59,0,23.48-4.09,31.31-11.23v-.68l.34,.34c6.47-6.81,10.55-15.99,10.55-27.22,0-27.91-16.33-43.22-44.58-43.22h-5.1v82.02h7.49Z"/>
    <path class="cls-1" d="M1173.6,1193.87v-143.61c0-10.55-3.74-13.61-20.76-14.63v-2.72h76.91v2.72c-17.35,1.02-20.42,4.09-20.42,14.63v143.61c0,10.89,3.4,13.61,20.42,14.63v2.72h-76.91v-2.72c17.36-1.02,20.76-4.09,20.76-14.63Z"/>
    <path class="cls-1" d="M1259.03,1123.76c0-55.47,43.9-94.27,98.01-94.27s95.29,37.09,95.29,90.86-43.56,94.27-98.35,94.27-94.94-37.09-94.94-90.86Zm100.05,86.09c30.29,0,53.43-31.99,53.43-80.31s-22.46-95.28-60.24-95.28c-30.29,0-53.09,31.99-53.09,80.31,0,44.24,21.44,95.28,59.9,95.28Z"/>
    <path class="cls-1" d="M1499.3,1203.74c-3.4,0-5.45,2.04-7.15,7.49h-2.72l-7.83-73.85h2.73c16.33,43.91,38.11,71.81,75.55,71.81,35.05,0,56.83-19.74,56.83-48.66,0-22.12-13.61-39.13-49.68-54.45l-20.08-8.51c-41.52-17.69-54.79-41.18-54.79-67.38,0-39.47,29.95-70.1,70.78-70.1,27.57,0,45.6,10.89,53.09,10.89,3.4,0,5.11-2.04,6.81-7.49h2.72l7.15,65.34h-2.72c-15.99-39.48-36.41-63.3-67.04-63.3-24.5,0-46.28,15.32-46.28,43.22,0,20.42,7.49,36.07,49.01,53.77l20.08,8.5c40.84,17.35,55.47,40.16,55.47,68.4,0,43.56-35.05,75.21-81.33,75.21-30.29,0-53.43-10.89-60.57-10.89Z"/>
  </g>
  <g>
    <path class="cls-1" d="M272.75,1443.05l-24.84-68.06h-81.67l-18.72,50.71c-10.55,27.9-4.76,41.52,28.25,43.56v2.72H97.83v-2.72c17.36-2.04,28.93-12.25,41.86-45.6l61.94-167.77-7.83-20.08c11.91-2.72,25.18-9.18,32.33-18.37h2.38c3.06,11.91,4.76,17.02,13.27,39.13l63.64,170.49c12.93,33.35,18.38,40.16,40.5,42.2v2.72h-95.97v-2.72c27.91-1.7,28.93-9.19,22.8-26.2Zm-27.57-74.87l-38.46-104.81-38.11,104.81h76.57Z"/>
    <path class="cls-1" d="M379.62,1438.29l3.06-113.66c.34-20.08-8.85-25.87-27.23-28.25v-2.72h65c.68,3.41,3.4,10.89,8.85,24.5l43.22,107.54,41.52-102.43c5.1-12.26,8.85-24.16,9.53-29.61h57.17v2.72c-15.65,1.02-20.08,3.41-19.74,14.63l3.06,143.61c.34,10.89,3.74,13.95,19.74,14.63v2.72h-74.87v-2.72c15.65-1.02,20.08-3.75,19.74-14.63l-3.4-141.23-65.34,158.59h-6.13l-64.32-157.22-3.4,123.53c-.34,21.78,10.55,29.27,30.97,30.97v2.72h-64.66v-2.72c17.35-1.7,26.54-9.87,27.22-30.97Z"/>
    <path class="cls-1" d="M628.74,1454.63v-143.61c0-10.55-3.74-13.61-19.74-14.63v-2.72h133.74l9.19,45.6h-2.72c-15.99-31.65-30.29-41.52-60.91-41.52h-23.82v81.68h25.18c22.46,0,28.24-11.23,33.69-33.01h2.72v71.47h-2.72c-5.45-23.14-11.23-34.38-33.69-34.38h-25.18v72.49c0,7.83,5.1,11.91,12.59,11.91h20.76c22.46,0,40.5-10.21,61.25-43.22h2.72l-14.29,47.31h-138.51v-2.72c16.68-1.02,19.74-4.09,19.74-14.63Z"/>
    <path class="cls-1" d="M845.53,1454.63v-156.88h-5.79c-30.29,0-44.58,8.85-60.57,41.52h-2.72l9.53-47.3c4.76,.68,18.04,1.7,31.65,1.7h91.54c13.61,0,26.88-1.02,31.65-1.7l9.87,47.3h-3.06c-15.99-32.67-30.29-41.52-60.23-41.52h-6.13v156.88c0,10.55,3.06,13.61,19.74,14.63v2.72h-75.21v-2.72c15.99-1.02,19.74-3.41,19.74-14.63Z"/>
    <path class="cls-1" d="M990.17,1454.63v-143.61c0-10.55-3.74-13.61-19.74-14.63v-2.72h74.87v2.72c-16.33,1.02-19.4,4.09-19.4,14.63v67.72h85.08v-67.72c0-10.55-3.4-13.61-19.74-14.63v-2.72h74.87v2.72c-15.99,1.02-19.4,3.75-19.4,14.63v143.61c0,10.55,3.4,13.61,19.4,14.63v2.72h-74.87v-2.72c15.99-1.02,19.74-3.41,19.74-14.63v-70.1h-85.08v70.1c0,10.89,3.4,13.61,19.4,14.63v2.72h-74.87v-2.72c16.68-1.02,19.74-4.09,19.74-14.63Z"/>
    <path class="cls-1" d="M1184.5,1296.38v-2.72h79.29v2.72c-19.06,1.7-15.99,9.88-9.53,22.13l38.12,70.44,29.27-54.45c13.27-24.5,11.23-36.07-16.34-38.12v-2.72h65v2.72c-15.32,2.04-26.54,11.23-42.2,40.5l-33.35,61.6v56.15c0,10.55,3.4,13.61,19.74,14.63v2.72h-74.87v-2.72c15.99-1.02,19.4-3.75,19.4-14.63v-52.41l-36.41-67.72c-15.32-28.93-22.8-36.07-38.12-38.12Z"/>
    <path class="cls-1" d="M1393.13,1466.54c-2.38,0-4.09,1.7-5.45,5.44h-2.72l-5.79-58.87h2.73c13.27,34.71,28.92,57.51,57.85,57.51,24.84,0,40.16-13.27,40.16-31.99,0-15.31-9.53-27.22-35.73-38.12l-15.32-6.12c-31.65-12.93-41.52-30.29-41.52-50.03,0-29.27,22.46-54.11,55.13-54.11,20.08,0,35.39,8.85,41.18,8.85,2.72,0,4.08-1.7,5.78-5.45h2.73l5.44,51.05h-2.72c-12.59-30.96-28.24-49.68-52.41-49.68-16.68,0-31.99,10.55-31.99,28.25,0,14.29,5.1,24.84,36.41,37.77l14.98,6.13c30.63,12.93,41.52,29.94,41.52,51.05,0,31.99-27.57,57.17-63.64,57.17-22.46,0-40.83-8.84-46.62-8.84Z"/>
    <path class="cls-1" d="M1592.56,1454.63v-156.88h-5.79c-30.29,0-44.58,8.85-60.57,41.52h-2.72l9.53-47.3c4.76,.68,18.04,1.7,31.65,1.7h91.54c13.61,0,26.89-1.02,31.65-1.7l9.87,47.3h-3.06c-15.99-32.67-30.29-41.52-60.24-41.52h-6.13v156.88c0,10.55,3.06,13.61,19.74,14.63v2.72h-75.21v-2.72c15.99-1.02,19.74-3.41,19.74-14.63Z"/>
    <path class="cls-1" d="M1736.51,1464.49c-3.4,0-5.45,2.04-7.15,7.49h-2.72l-7.83-73.85h2.73c16.33,43.91,38.11,71.81,75.55,71.81,35.05,0,56.83-19.74,56.83-48.66,0-22.12-13.61-39.13-49.68-54.45l-20.08-8.51c-41.52-17.69-54.79-41.18-54.79-67.38,0-39.47,29.95-70.1,70.79-70.1,27.56,0,45.6,10.89,53.09,10.89,3.4,0,5.11-2.04,6.81-7.49h2.72l7.15,65.34h-2.72c-15.99-39.48-36.41-63.3-67.04-63.3-24.5,0-46.28,15.32-46.28,43.22,0,20.42,7.49,36.07,49.01,53.77l20.08,8.5c40.84,17.35,55.47,40.16,55.47,68.4,0,43.56-35.05,75.21-81.33,75.21-30.29,0-53.43-10.89-60.57-10.89Z"/>
  </g>
  <g>
    <path class="cls-1" d="M462.26,1678.45v-59.58c0-3.66-1.35-4.24-8.1-4.62v-.68h45.11l2.99,15.43h-.68c-4.14-11.19-7.13-13.89-17.64-13.89h-16v32.29h13.69c8.58,0,10.32-2.41,11.76-11.27h.68v24.48h-.68c-1.45-9.35-3.18-11.66-11.76-11.66h-13.69v29.5c0,3.67,1.35,4.24,10.41,4.63v.67h-24.2v-.67c6.75-.39,8.1-.96,8.1-4.63Z"/>
    <path class="cls-1" d="M581.34,1677.29l-7.52-21.11h-25.16l-6.46,18.22c-2.02,5.5-.87,8.2,7.33,8.68v.67h-19.38v-.67c4.72-.48,7.52-2.51,10.03-9.16l19.66-55.53-1.35-3.66c1.83-.48,4.14-1.55,5.3-3.09h.48c.77,3.47,1.25,4.91,3.57,11.19l18.61,52.05c2.5,6.65,3.37,7.72,9.64,8.2v.67h-21.98v-.67c8.1-.1,8.77-1.35,7.23-5.79Zm-8.1-22.85l-11.95-33.93-12.05,33.93h24Z"/>
    <path class="cls-1" d="M638.54,1673.73l1.06-51.09c.1-7.32-1.64-7.9-9.06-8.38v-.68h16.49c.96,2.89,2.12,6.17,3.47,9.83l18.8,50.99,18.12-49.16c1.54-4.24,3.28-9.35,3.66-11.67h15.81v.68c-6.75,.38-8.19,.96-8.1,4.62l1.16,59.58c.1,3.67,1.25,4.24,8.1,4.63v.67h-21.88v-.67c6.75-.39,8.19-.96,8.1-4.63l-1.35-62.18-25.06,67.48h-.96l-25.06-67.67-1.25,57.65c-.19,7.32,1.54,8.87,10.6,9.35v.67h-21.79v-.67c7.43-.48,9.06-2.03,9.16-9.35Z"/>
    <path class="cls-1" d="M753.59,1678.45v-59.58c0-3.66-1.35-4.24-8.48-4.62v-.68h22.66v.68c-7.13,.38-8.48,.96-8.48,4.62v59.58c0,3.67,1.35,4.24,8.48,4.63v.67h-22.66v-.67c7.13-.39,8.48-.96,8.48-4.63Z"/>
    <path class="cls-1" d="M813.39,1678.45v-59.58c0-3.66-1.35-4.24-8.1-4.62v-.68h21.88v.68c-6.75,.38-8.1,.96-8.1,4.62v59.58c0,2.8,1.35,3.76,4.14,3.76h12.53c9.54,0,13.21-2.8,19.18-14.95h.68l-5.01,16.49h-45.31v-.67c6.75-.39,8.1-.96,8.1-4.63Z"/>
    <path class="cls-1" d="M879.45,1614.25v-.68h21.98v.68c-8.1,.1-7.71,1.64-5.21,6.07l17.16,31.23,16-28.63c2.99-5.4,2.5-8.19-6.27-8.67v-.68h20.63v.68c-5.69,.48-8.48,2.31-12.53,9.54l-16.87,30.07v24.58c0,3.67,1.35,4.24,8.1,4.63v.67h-21.88v-.67c6.75-.39,8.1-.96,8.1-4.63v-24.1l-17.54-31.52c-3.86-7.24-5.69-8.1-11.66-8.58Z"/>
    <path class="cls-1" d="M1029.21,1649.53c0-22.08,15.62-36.92,34.99-36.92s34.13,14.08,34.13,35.18-15.81,36.92-35.48,36.92-33.64-14.08-33.64-35.18Zm35.19,33.55c15.52,0,27.47-13.11,27.47-32.97s-12.34-35.86-29.11-35.86c-15.33,0-27.09,13.2-27.09,32.96s12.34,35.86,28.73,35.86Z"/>
    <path class="cls-1" d="M1166.34,1614.25v-.68h21.98v.68c-8.2,.1-8.68,1.34-7.23,5.78l18.12,54.66,17.16-51.77c1.93-5.5,.48-8.19-8.48-8.67v-.68h20.73v.68c-5.59,.48-7.81,2.5-10.22,9.16l-20.53,61.31h-1.06l-17.54-52.44-17.54,52.44h-1.06l-20.82-62.27c-2.41-6.65-3.38-7.71-9.64-8.19v-.68h21.98v.68c-8.2,.1-8.68,1.34-7.23,5.78l18.12,54.66,15.14-45.5-2.22-6.75c-2.41-6.65-3.37-7.71-9.64-8.19Z"/>
    <path class="cls-1" d="M1271.37,1673.73v-50.13c0-7.32-1.74-8.86-9.16-9.35v-.68h14.17l42.12,59.86v-49.84c0-7.32-1.73-8.86-11.86-9.35v-.68h23.04v.68c-7.43,.48-9.16,2.02-9.16,9.35v61.12h-.68l-46.46-65.26v54.27c0,7.32,1.74,8.87,11.86,9.35v.67h-23.04v-.67c7.42-.48,9.16-2.03,9.16-9.35Z"/>
    <path class="cls-1" d="M1374.56,1678.45v-59.58c0-3.66-1.35-4.24-8.1-4.62v-.68h46.85l2.99,15.43h-.68c-4.15-11.19-7.13-13.89-17.64-13.89h-17.73v32.29h14.65c8.58,0,10.32-2.41,11.76-11.27h.68v24.48h-.68c-1.45-9.35-3.18-11.66-11.76-11.66h-14.65v29.5c0,2.6,1.35,3.76,4.14,3.76h15.81c9.54,0,13.11-2.61,19.09-14.85h.68l-4.92,16.39h-48.58v-.67c6.75-.39,8.1-.96,8.1-4.63Z"/>
    <path class="cls-1" d="M1464.63,1678.45v-59.58c0-3.66-1.35-4.24-8.1-4.62v-.68h25.74c23.23,0,39.81,13.02,39.81,34.22s-18.51,35.96-40.87,35.96h-24.68v-.67c6.75-.39,8.1-.96,8.1-4.63Zm17.64,3.76c17.83,0,33.45-11.47,33.45-32.1s-14.27-34.99-34.51-34.99h-10.89v62.56c0,3.47,.96,4.53,11.95,4.53Z"/>
  </g>
  <g>
    <path class="cls-1" d="M898.24,377.99l-85.99-15.23-.87-.56-50.04-71.57-.22-1.01,15.23-85.99,.56-.87,71.58-50.04,1.01-.22,85.99,15.23,.87,.56,50.04,71.57,.22,1.01-14.59,82.35,44.79-37.26,1.73,2.08-47.63,39.62-71.67,50.11-1.01,.22Zm-84.97-17.8l84.89,15.03,70.66-49.39,15.03-84.89-49.39-70.66-84.89-15.03-70.66,49.39-15.03,84.89,49.39,70.66Z"/>
    <path class="cls-1" d="M887.95,331.4l-50.03-8.86-.87-.56-29.11-41.64-.22-1.01,8.86-50.03,.56-.87,41.65-29.12,1.01-.22,50.03,8.86,.87,.56,29.11,41.65,.22,1.01-8.86,50.03-.56,.87-41.65,29.12-1.01,.22Zm-49.01-11.43l48.93,8.67,40.73-28.47,8.67-48.93-28.47-40.73-48.93-8.67-40.73,28.47-8.67,48.93,28.47,40.72Z"/>
    <polygon class="cls-1" points="1122.64 826.01 1028.42 796.51 970.86 819.55 969.63 819.44 863.78 752.72 777.64 762.49 776.44 762.01 731.57 708.03 706.5 639.28 706.43 638.66 713.63 573.48 714.13 572.57 745.74 547.11 738.63 396 738.75 395.37 759.17 350.97 761.09 289.81 763.8 289.9 761.75 351.86 741.35 396.2 748.48 547.67 747.97 548.79 716.26 574.33 709.16 638.65 734.03 706.88 778.06 759.72 863.95 749.98 864.82 750.18 970.49 816.78 1027.86 793.82 1028.77 793.78 1122.97 823.27 1215.92 782.38 1299.28 664.42 1294.95 645.36 1295.02 644.54 1347.23 518.9 1305.47 497.15 1304.92 496.62 1271.1 437.87 1163.22 340.69 1050.72 266.86 1018.43 288.13 1016.57 287.78 984.17 241.41 986.39 239.85 1018.04 285.14 1049.98 264.11 1051.46 264.11 1164.87 338.55 1273.07 436.01 1273.34 436.34 1307.07 494.93 1349.58 517.07 1350.21 518.79 1297.69 645.18 1302.06 664.41 1301.85 665.49 1217.91 784.25 1217.35 784.71 1123.59 825.96 1122.64 826.01"/>
    <polygon class="cls-1" points="817.17 230.67 776.94 205 778.4 202.72 817.26 227.52 848 153.31 850.5 154.34 819.15 230.05 817.17 230.67"/>
    <polygon class="cls-1" points="762.74 291.18 761.45 288.94 816.9 228.61 818.89 230.45 766.35 287.6 808.74 278.24 809.33 280.89 762.74 291.18"/>
    <polygon class="cls-1" points="897.56 377.66 837.23 322.21 839.07 320.21 896.22 372.75 886.86 330.36 889.51 329.78 899.8 376.37 897.56 377.66"/>
    <rect class="cls-1" x="1160.54" y="213.4" width="2.71" height="356.15" transform="translate(163.21 1102.72) rotate(-54.08)"/>
    <polygon class="cls-1" points="908.66 210.27 851.5 157.73 860.86 200.12 858.22 200.71 847.93 154.12 850.17 152.83 909.3 207.18 934.1 168.32 936.38 169.78 910.72 210 908.66 210.27"/>
    <rect class="cls-1" x="946.07" y="183.98" width="2.71" height="81.94" transform="translate(377.07 1014.2) rotate(-67.5)"/>
    <rect class="cls-1" x="785.15" y="329.89" width="2.71" height="52.94" transform="translate(286.1 1060.05) rotate(-78.96)"/>
    <polygon class="cls-1" points="740.56 397.16 739.4 394.71 811.55 360.37 836.14 321.84 761.93 291.11 762.96 288.6 838.67 319.96 839.29 321.94 813.62 362.16 813.06 362.65 740.56 397.16"/>
    <polygon class="cls-1" points="930.83 301.87 928.83 300.04 981.37 242.88 938.98 252.24 938.4 249.6 984.99 239.31 986.28 241.55 930.83 301.87"/>
    <rect class="cls-1" x="933.06" y="373.75" width="2.71" height="447.45" transform="translate(-83.85 157.88) rotate(-9.24)"/>
    <rect class="cls-1" x="1134.99" y="258.27" width="2.71" height="472.92" transform="translate(-19.44 942.17) rotate(-44.69)"/>
    <rect class="cls-1" x="1045.19" y="315.14" width="2.71" height="521.06" transform="translate(-122.9 332.67) rotate(-17.08)"/>
    <polygon class="cls-1" points="1305.49 497.15 969.44 327.83 929.1 302.1 930.56 299.81 970.78 325.48 1306.71 494.74 1305.49 497.15"/>
    <polygon class="cls-1" points="708.46 639.98 707.09 637.64 814.19 574.73 928.58 300.43 931.08 301.48 816.52 576.19 815.96 576.84 708.46 639.98"/>
    <rect class="cls-1" x="779.84" y="524.88" width="2.71" height="73.65" transform="translate(-34.84 1071.46) rotate(-67.71)"/>
    <polygon class="cls-1" points="778.81 761.41 776.16 760.87 813.94 575.4 816.57 575.31 865.41 750.96 862.79 751.68 815.47 581.46 778.81 761.41"/>
  </g>
</svg>